<?xml version="1.0" standalone="no"?>
<!DOCTYPE svg PUBLIC "-//W3C//DTD SVG 1.1//EN" "http://www.w3.org/Graphics/SVG/1.1/DTD/svg11.dtd" >
<svg xmlns="http://www.w3.org/2000/svg" xmlns:xlink="http://www.w3.org/1999/xlink" version="1.1">
<metadata></metadata>
<defs>
<font id="aa_bebas_neueregular" horiz-adv-x="841" >
<font-face units-per-em="2048" ascent="1536" descent="-512" />
<missing-glyph horiz-adv-x="317" />
<glyph horiz-adv-x="0" />
<glyph unicode="&#xd;" horiz-adv-x="317" />
<glyph unicode=" "  horiz-adv-x="317" />
<glyph unicode="&#x09;" horiz-adv-x="317" />
<glyph unicode="&#xa0;" horiz-adv-x="317" />
<glyph unicode="!" horiz-adv-x="325" d="M49 836v598h225v-598l-28 -519h-168zM53 0v217h217v-217h-217z" />
<glyph unicode="&#x22;" horiz-adv-x="598" d="M49 1434h217l-33 -422h-153zM334 1434h217l-33 -422h-153z" />
<glyph unicode="#" horiz-adv-x="837" d="M31 410l16 159h100l39 375h-102l16 160h103l35 330h184l-35 -330h133l35 330h184l-34 -330h104l-16 -160h-105l-39 -375h105l-17 -159h-104l-43 -410h-184l43 410h-134l-43 -410h-184l43 410h-100zM332 569h133l39 375h-133z" />
<glyph unicode="$" horiz-adv-x="737" d="M33 365v98h213v-113q0 -78 31.5 -108.5t84.5 -30.5t85 30.5t32 108.5q0 74 -32.5 127t-82 99.5t-105.5 90.5t-105.5 99t-82 128t-32.5 175q0 145 59.5 234.5t177.5 115.5v107h185v-107q121 -25 181 -113.5t60 -236.5v-45h-213v59q0 78 -29.5 110t-82.5 32t-83 -32 t-30 -110q0 -74 33 -127t82 -99t105.5 -90t105.5 -99.5t82 -128t33 -174.5q0 -147 -61.5 -237.5t-182.5 -115.5v-104h-185v104q-123 25 -183 115t-60 238z" />
<glyph unicode="%" horiz-adv-x="1222" d="M39 743v471q0 111 55.5 170.5t161.5 59.5t161.5 -59.5t55.5 -170.5v-471q0 -111 -55.5 -170t-161.5 -59t-161.5 59.5t-55.5 169.5zM182 733q0 -90 74 -90q35 0 54.5 21.5t19.5 68.5v492q0 47 -19.5 68.5t-54.5 21.5q-74 0 -74 -90v-492zM256 0l565 1434h133l-565 -1434 h-133zM750 213v471q0 111 55 170t162 59q106 0 161.5 -59t55.5 -170v-471q0 -111 -55.5 -170t-161.5 -59t-161.5 59t-55.5 170zM893 203q0 -90 74 -90q35 0 54 21.5t19 68.5v491q0 47 -19.5 68.5t-53.5 21.5q-74 0 -74 -90v-491z" />
<glyph unicode="&#x26;" horiz-adv-x="825" d="M47 311v146q0 111 36 187.5t120 113.5q-156 66 -156 295v26q0 174 83 264.5t253 90.5h258v-205h-254q-53 0 -84 -31t-31 -108v-89q0 -86 36 -118.5t100 -32.5h98v160h225v-160h60v-205h-60v-471q0 -53 4 -93t21 -81h-230q-8 23 -12 44.5t-8 68.5q-59 -129 -209 -129 q-125 0 -187.5 84t-62.5 243zM272 330q0 -78 32 -110t85 -32q51 0 82 29t35 96v332h-86q-78 0 -113 -41t-35 -141v-133z" />
<glyph unicode="'" horiz-adv-x="299" d="M41 1434h217l-33 -422h-153z" />
<glyph unicode="(" horiz-adv-x="479" d="M47 313v807q0 86 17.5 145.5t55.5 97.5t98.5 54.5t143.5 16.5h70v-185h-55q-53 0 -79 -25.5t-26 -103.5v-807q0 -78 26 -103.5t79 -25.5h55v-184h-70q-84 0 -144 16.5t-98 54.5t-55.5 97t-17.5 145z" />
<glyph unicode=")" horiz-adv-x="479" d="M45 0v184h55q53 0 79 26t26 103v807q0 78 -25.5 103.5t-79.5 25.5h-55v185h70q168 0 241.5 -71t73.5 -243v-807q0 -172 -73.5 -242.5t-241.5 -70.5h-70z" />
<glyph unicode="*" horiz-adv-x="843" d="M20 1075l58 174l305 -153l-53 338h184l-53 -338l305 153l57 -174l-336 -57l240 -240l-147 -108l-158 303l-158 -303l-147 108l239 240z" />
<glyph unicode="+" horiz-adv-x="731" d="M31 356v160h254v164h-254v160h254v233h159v-233h254v-160h-254v-164h254v-160h-667z" />
<glyph unicode="," horiz-adv-x="294" d="M43 0v217h217v-194l-98 -228h-92l59 205h-86z" />
<glyph unicode="-" horiz-adv-x="518" d="M53 614v205h410v-205h-410z" />
<glyph unicode="." horiz-adv-x="327" d="M53 0v217h217v-217h-217z" />
<glyph unicode="/" horiz-adv-x="772" d="M6 0l565 1434h195l-565 -1434h-195z" />
<glyph unicode="0" horiz-adv-x="780" d="M47 344v746q0 174 88 267t254 93t254 -93t88 -267v-746q0 -174 -88 -267t-254 -93t-254 93t-88 267zM272 330q0 -78 32 -110t85 -32t85 32t32 110v774q0 78 -32 109.5t-85 31.5t-85 -31.5t-32 -109.5v-774z" />
<glyph unicode="1" horiz-adv-x="460" d="M6 1094v159q66 0 108 14.5t68.5 39t43 57.5t28.5 70h152v-1434h-226v1094h-174z" />
<glyph unicode="2" horiz-adv-x="759" d="M47 0v176q0 104 33 184t83 146.5t107.5 125t107.5 124t83 143.5t33 182q0 96 -32 130t-85 34t-85 -31.5t-32 -109.5v-154h-213v140q0 174 85 267t251 93t251 -93t85 -267q0 -117 -36 -211.5t-89 -172t-114.5 -142t-111 -123t-78 -116t-18.5 -120.5h426v-205h-651z" />
<glyph unicode="3" horiz-adv-x="755" d="M39 344v119h213v-133q0 -78 31.5 -110t85.5 -32q53 0 84.5 33t31.5 129v113q0 100 -34.5 141t-112.5 41h-76v205h88q63 0 99 32.5t36 118.5v80q0 96 -31.5 130t-84.5 34t-85 -31.5t-32 -109.5v-92h-213v78q0 174 85 267t251 93t251 -93t85 -267v-37q0 -229 -158 -295 q86 -37 122 -114t36 -187v-113q0 -174 -85 -267t-251 -93t-251 93t-85 267z" />
<glyph unicode="4" horiz-adv-x="806" d="M12 260v205l410 969h246v-969h106v-205h-106v-260h-226v260h-430zM219 465h223v530z" />
<glyph unicode="5" horiz-adv-x="759" d="M45 344v119h213v-133q0 -78 32 -109t85 -31t85 31t32 109v315q0 78 -32 109.5t-85 31.5t-85 -31.5t-32 -109.5v-43h-213l41 832h594v-205h-391l-19 -342q63 104 197 104q125 0 187.5 -84t62.5 -243v-320q0 -174 -85 -267t-251 -93t-251 93t-85 267z" />
<glyph unicode="6" horiz-adv-x="776" d="M47 344v733q0 182 84 277.5t260 95.5q166 0 251 -93t85 -267v-37h-213v51q0 78 -31.5 109.5t-85.5 31.5q-59 0 -92 -37t-33 -139v-262q59 127 209 127q125 0 187.5 -84t62.5 -244v-262q0 -174 -88 -267t-254 -93t-254 93t-88 267zM272 330q0 -78 32 -109t85 -31t85 31 t32 109v258q0 78 -32 109.5t-85 31.5t-85 -31.5t-32 -109.5v-258z" />
<glyph unicode="7" horiz-adv-x="727" d="M31 1229v205h676v-197l-332 -1237h-225l329 1229h-448z" />
<glyph unicode="8" horiz-adv-x="794" d="M45 344v113q0 104 33 181t106 118q-139 76 -139 288v46q0 174 90 267t262 93t262.5 -93t90.5 -267v-46q0 -211 -140 -288q74 -41 107 -118t33 -181v-113q0 -174 -90.5 -267t-262.5 -93t-262 93t-90 267zM270 350q0 -96 37 -129t90 -33t89 33t38 129v133q0 86 -33.5 124 t-93.5 38q-59 0 -93 -38t-34 -124v-133zM270 1001q0 -86 36 -118.5t91 -32.5q53 0 90 32.5t37 118.5v80q0 96 -36.5 130t-90.5 34q-53 0 -90 -33.5t-37 -130.5v-80z" />
<glyph unicode="9" horiz-adv-x="776" d="M43 827v263q0 174 88 267t254 93t254 -93t88 -267v-734q0 -182 -84 -277t-260 -95q-166 0 -251 93t-85 267v37h213v-51q0 -78 32 -110t85 -32q59 0 92 37t33 140v262q-59 -127 -209 -127q-125 0 -187.5 84t-62.5 243zM268 846q0 -78 32 -109.5t85 -31.5t85 31.5t32 109.5 v258q0 78 -32 108.5t-85 30.5t-85 -30.5t-32 -108.5v-258z" />
<glyph unicode=":" horiz-adv-x="284" d="M53 0v217h217v-217h-217zM53 780v217h217v-217h-217z" />
<glyph unicode=";" horiz-adv-x="294" d="M39 0v217h217v-194l-98 -228h-92l59 205h-86zM39 780v217h217v-217h-217z" />
<glyph unicode="&#x3c;" horiz-adv-x="712" d="M6 637v160l668 245v-161l-459 -164l459 -164v-162z" />
<glyph unicode="=" horiz-adv-x="745" d="M53 471v160h668v-160h-668zM53 803v160h668v-160h-668z" />
<glyph unicode="&#x3e;" horiz-adv-x="727" d="M53 391v162l459 164l-459 164v161l668 -245v-160z" />
<glyph unicode="?" horiz-adv-x="708" d="M23 948v142q0 174 82.5 267t248.5 93t249 -93t83 -267q0 -94 -19.5 -163t-49 -124t-64.5 -101.5t-64.5 -91.5t-49 -96t-19.5 -117q0 -45 8 -80h-201q-12 37 -12 89q0 78 18.5 135t45 105t59.5 92t59.5 95.5t45 116t18.5 154.5q0 78 -30 109.5t-83 31.5t-82.5 -31.5 t-29.5 -109.5v-156h-213zM217 0v217h217v-217h-217z" />
<glyph unicode="@" horiz-adv-x="1400" d="M39 594q0 190 47 357t141.5 293t235.5 199t332 73q162 0 271.5 -47.5t175 -129.5t94 -191.5t28.5 -234.5q0 -188 -40 -314t-100.5 -201.5t-130 -106.5t-128.5 -31q-78 0 -126 32t-55 103q-63 -129 -198 -123q-109 4 -155 85t-30 231l23 207q16 152 78.5 229.5t171.5 73.5 q127 -2 168 -127l12 119h197l-62 -592q-6 -51 41 -52q43 0 74 43t51.5 111t29.5 149.5t9 159.5q0 96 -23.5 176t-73.5 136.5t-127 88t-184 31.5q-137 0 -240.5 -53t-173 -151.5t-105.5 -238.5t-36 -314q0 -248 117 -391.5t361 -143.5q57 0 110 6t104.5 21.5t103.5 43 t106 68.5l-17 -196q-102 -68 -203.5 -91.5t-216.5 -23.5q-172 0 -297 52.5t-204.5 147.5t-117.5 226t-38 291zM600 598q-8 -72 16.5 -102.5t71.5 -32.5t77 27.5t38 101.5l20 194q6 59 -20.5 87t-67.5 28q-47 2 -77.5 -27.5t-39.5 -101.5z" />
<glyph unicode="A" horiz-adv-x="849" d="M31 0l229 1434h330l229 -1434h-227l-39 260h-277l-38 -260h-207zM305 455h217l-108 725z" />
<glyph unicode="B" horiz-adv-x="792" d="M53 0v1434h340q176 0 255 -82t79 -248v-51q0 -111 -35 -182.5t-110 -106.5q92 -35 130 -114t38 -193v-117q0 -166 -86 -253t-256 -87h-355zM279 205h129q57 0 86.5 30.5t29.5 110.5v125q0 100 -33.5 137t-111.5 37h-100v-440zM279 850h88q63 0 99 32.5t36 118.5v80 q0 78 -28 113t-87 35h-108v-379z" />
<glyph unicode="C" horiz-adv-x="761" d="M47 344v746q0 174 85 267t251 93t251 -93t85 -267v-140h-213v154q0 78 -32 109.5t-85 31.5t-85 -31.5t-32 -109.5v-774q0 -78 32 -109t85 -31t85 31t32 109v205h213v-191q0 -174 -85 -267t-251 -93t-251 93t-85 267z" />
<glyph unicode="D" horiz-adv-x="794" d="M53 0v1434h357q170 0 252.5 -90.5t82.5 -264.5v-725q0 -174 -82.5 -264t-252.5 -90h-357zM279 205h127q53 0 83.5 30.5t30.5 108.5v746q0 78 -30.5 108.5t-83.5 30.5h-127v-1024z" />
<glyph unicode="E" horiz-adv-x="712" d="M53 0v1434h615v-205h-389v-400h309v-204h-309v-420h389v-205h-615z" />
<glyph unicode="F" horiz-adv-x="659" d="M53 0v1434h596v-205h-370v-432h290v-205h-290v-592h-226z" />
<glyph unicode="G" horiz-adv-x="765" d="M47 344v746q0 174 85 267t251 93t251 -93t85 -267v-140h-213v154q0 78 -32 109.5t-85 31.5t-85 -31.5t-32 -109.5v-774q0 -78 32 -109t85 -31t85 31t32 109v264h-103v205h316v-455q0 -174 -85 -267t-251 -93t-251 93t-85 267z" />
<glyph unicode="H" horiz-adv-x="819" d="M53 0v1434h226v-615h256v615h229v-1434h-229v614h-256v-614h-226z" />
<glyph unicode="I" horiz-adv-x="335" d="M53 0v1434h226v-1434h-226z" />
<glyph unicode="J" horiz-adv-x="499" d="M16 0v205q18 -2 39 -2h39q53 0 91 26.5t38 110.5v1094h226v-1078q0 -109 -27 -178t-72 -109t-103.5 -56.5t-121.5 -16.5h-55.5t-53.5 4z" />
<glyph unicode="K" d="M53 0v1434h226v-625l299 625h221l-314 -639l314 -795h-232l-219 571l-69 -131v-440h-226z" />
<glyph unicode="L" horiz-adv-x="659" d="M53 0v1434h226v-1229h370v-205h-596z" />
<glyph unicode="M" horiz-adv-x="1052" d="M53 0v1434h314l165 -1018l154 1018h313v-1434h-213v1028l-155 -1028h-213l-168 1014v-1014h-197z" />
<glyph unicode="N" horiz-adv-x="819" d="M51 0v1434h283l231 -859v859h201v-1434h-231l-281 1038v-1038h-203z" />
<glyph unicode="O" horiz-adv-x="776" d="M45 344v746q0 174 88 267t254 93t254 -93t88 -267v-746q0 -174 -88 -267t-254 -93t-254 93t-88 267zM270 330q0 -78 32 -110t85 -32t85 32t32 110v774q0 78 -32 109.5t-85 31.5t-85 -31.5t-32 -109.5v-774z" />
<glyph unicode="P" horiz-adv-x="735" d="M51 0v1434h332q170 0 253 -90.5t83 -264.5v-186q0 -174 -83 -264t-253 -90h-107v-539h-225zM276 743h107q53 0 82 29t29 107v215q0 78 -29 106.5t-82 28.5h-107v-486z" />
<glyph unicode="Q" horiz-adv-x="808" d="M43 344v746q0 174 88 267t254 93t254 -93t88 -267v-746q0 -121 -43 -201q8 -20 21.5 -25t42.5 -5h20v-201h-31q-76 0 -124 25.5t-70 72.5q-35 -12 -74 -19t-84 -7q-166 0 -254 93t-88 267zM268 330q0 -78 32 -110t85 -32t85 32t32 110v774q0 78 -32 109.5t-85 31.5 t-85 -31.5t-32 -109.5v-774z" />
<glyph unicode="R" horiz-adv-x="792" d="M51 0v1434h340q176 0 255 -82t79 -248v-113q0 -221 -147 -291q86 -35 117.5 -113.5t31.5 -191.5v-221q0 -53 4 -93t21 -81h-230q-4 14 -8 26.5t-7 31t-4 47t-1 71.5v225q0 100 -35 141.5t-113 41.5h-78v-584h-225zM276 788h89q63 0 99 33t36 119v141q0 78 -28 113t-87 35 h-109v-441z" />
<glyph unicode="S" horiz-adv-x="749" d="M39 344v98h213v-112q0 -78 31.5 -109t85.5 -31q53 0 84.5 31t31.5 109q0 74 -32.5 130t-81.5 106t-105.5 100.5t-105.5 110t-82 135.5t-33 178q0 174 83 267t249 93t249 -93t83 -267v-56h-213v70q0 78 -30 109.5t-83 31.5t-83 -31.5t-30 -109.5q0 -74 33 -130t82 -106.5 t105.5 -100.5t105.5 -109.5t82 -135.5t33 -178q0 -174 -85 -267t-251 -93t-251 93t-85 267z" />
<glyph unicode="T" horiz-adv-x="741" d="M23 1229v205h696v-205h-236v-1229h-225v1229h-235z" />
<glyph unicode="U" horiz-adv-x="770" d="M49 342v1092h225v-1106q0 -78 32 -109t85 -31t85 31t32 109v1106h213v-1092q0 -174 -85 -267t-251 -93t-251 93t-85 267z" />
<glyph unicode="V" horiz-adv-x="835" d="M29 1434h227l172 -1170l172 1170h207l-221 -1434h-336z" />
<glyph unicode="W" horiz-adv-x="1169" d="M39 1434h219l121 -1131l108 1131h218l112 -1139l117 1139h196l-159 -1434h-299l-82 764l-82 -764h-309z" />
<glyph unicode="X" horiz-adv-x="903" d="M41 0l252 737l-236 697h234l170 -529l174 529h209l-236 -697l252 -737h-237l-185 567l-186 -567h-211z" />
<glyph unicode="Y" horiz-adv-x="835" d="M20 1434h236l172 -654l172 654h215l-285 -959v-475h-225v475z" />
<glyph unicode="Z" horiz-adv-x="749" d="M43 0v201l428 1028h-408v205h639v-201l-428 -1028h428v-205h-659z" />
<glyph unicode="[" horiz-adv-x="466" d="M51 0v1434h373v-185h-148v-1065h148v-184h-373z" />
<glyph unicode="\" horiz-adv-x="772" d="M6 1434h195l565 -1434h-195z" />
<glyph unicode="]" horiz-adv-x="466" d="M41 0v184h147v1065h-147v185h373v-1434h-373z" />
<glyph unicode="^" horiz-adv-x="774" d="M23 799l284 635h160l285 -635h-181l-184 430l-184 -430h-180z" />
<glyph unicode="_" horiz-adv-x="1126" d="M51 -20h1024v-164h-1024v164z" />
<glyph unicode="`" horiz-adv-x="430" d="M12 1743h244l147 -240h-170z" />
<glyph unicode="a" horiz-adv-x="849" d="M31 0l229 1434h330l229 -1434h-227l-39 260h-277l-38 -260h-207zM305 455h217l-108 725z" />
<glyph unicode="b" horiz-adv-x="792" d="M53 0v1434h340q176 0 255 -82t79 -248v-51q0 -111 -35 -182.5t-110 -106.5q92 -35 130 -114t38 -193v-117q0 -166 -86 -253t-256 -87h-355zM279 205h129q57 0 86.5 30.5t29.5 110.5v125q0 100 -33.5 137t-111.5 37h-100v-440zM279 850h88q63 0 99 32.5t36 118.5v80 q0 78 -28 113t-87 35h-108v-379z" />
<glyph unicode="c" horiz-adv-x="761" d="M47 344v746q0 174 85 267t251 93t251 -93t85 -267v-140h-213v154q0 78 -32 109.5t-85 31.5t-85 -31.5t-32 -109.5v-774q0 -78 32 -109t85 -31t85 31t32 109v205h213v-191q0 -174 -85 -267t-251 -93t-251 93t-85 267z" />
<glyph unicode="d" horiz-adv-x="794" d="M53 0v1434h357q170 0 252.5 -90.5t82.5 -264.5v-725q0 -174 -82.5 -264t-252.5 -90h-357zM279 205h127q53 0 83.5 30.5t30.5 108.5v746q0 78 -30.5 108.5t-83.5 30.5h-127v-1024z" />
<glyph unicode="e" horiz-adv-x="712" d="M53 0v1434h615v-205h-389v-400h309v-204h-309v-420h389v-205h-615z" />
<glyph unicode="f" horiz-adv-x="659" d="M53 0v1434h596v-205h-370v-432h290v-205h-290v-592h-226z" />
<glyph unicode="g" horiz-adv-x="765" d="M47 344v746q0 174 85 267t251 93t251 -93t85 -267v-140h-213v154q0 78 -32 109.5t-85 31.5t-85 -31.5t-32 -109.5v-774q0 -78 32 -109t85 -31t85 31t32 109v264h-103v205h316v-455q0 -174 -85 -267t-251 -93t-251 93t-85 267z" />
<glyph unicode="h" horiz-adv-x="819" d="M53 0v1434h226v-615h256v615h229v-1434h-229v614h-256v-614h-226z" />
<glyph unicode="i" horiz-adv-x="335" d="M53 0v1434h226v-1434h-226z" />
<glyph unicode="j" horiz-adv-x="499" d="M16 0v205q18 -2 39 -2h39q53 0 91 26.5t38 110.5v1094h226v-1078q0 -109 -27 -178t-72 -109t-103.5 -56.5t-121.5 -16.5h-55.5t-53.5 4z" />
<glyph unicode="k" d="M53 0v1434h226v-625l299 625h221l-314 -639l314 -795h-232l-219 571l-69 -131v-440h-226z" />
<glyph unicode="l" horiz-adv-x="659" d="M53 0v1434h226v-1229h370v-205h-596z" />
<glyph unicode="m" horiz-adv-x="1052" d="M53 0v1434h314l165 -1018l154 1018h313v-1434h-213v1028l-155 -1028h-213l-168 1014v-1014h-197z" />
<glyph unicode="n" horiz-adv-x="819" d="M51 0v1434h283l231 -859v859h201v-1434h-231l-281 1038v-1038h-203z" />
<glyph unicode="o" horiz-adv-x="776" d="M45 344v746q0 174 88 267t254 93t254 -93t88 -267v-746q0 -174 -88 -267t-254 -93t-254 93t-88 267zM270 330q0 -78 32 -110t85 -32t85 32t32 110v774q0 78 -32 109.5t-85 31.5t-85 -31.5t-32 -109.5v-774z" />
<glyph unicode="p" horiz-adv-x="735" d="M51 0v1434h332q170 0 253 -90.5t83 -264.5v-186q0 -174 -83 -264t-253 -90h-107v-539h-225zM276 743h107q53 0 82 29t29 107v215q0 78 -29 106.5t-82 28.5h-107v-486z" />
<glyph unicode="q" horiz-adv-x="808" d="M43 344v746q0 174 88 267t254 93t254 -93t88 -267v-746q0 -121 -43 -201q8 -20 21.5 -25t42.5 -5h20v-201h-31q-76 0 -124 25.5t-70 72.5q-35 -12 -74 -19t-84 -7q-166 0 -254 93t-88 267zM268 330q0 -78 32 -110t85 -32t85 32t32 110v774q0 78 -32 109.5t-85 31.5 t-85 -31.5t-32 -109.5v-774z" />
<glyph unicode="r" horiz-adv-x="792" d="M51 0v1434h340q176 0 255 -82t79 -248v-113q0 -221 -147 -291q86 -35 117.5 -113.5t31.5 -191.5v-221q0 -53 4 -93t21 -81h-230q-4 14 -8 26.5t-7 31t-4 47t-1 71.5v225q0 100 -35 141.5t-113 41.5h-78v-584h-225zM276 788h89q63 0 99 33t36 119v141q0 78 -28 113t-87 35 h-109v-441z" />
<glyph unicode="s" horiz-adv-x="749" d="M39 344v98h213v-112q0 -78 31.5 -109t85.5 -31q53 0 84.5 31t31.5 109q0 74 -32.5 130t-81.5 106t-105.5 100.5t-105.5 110t-82 135.5t-33 178q0 174 83 267t249 93t249 -93t83 -267v-56h-213v70q0 78 -30 109.5t-83 31.5t-83 -31.5t-30 -109.5q0 -74 33 -130t82 -106.5 t105.5 -100.5t105.5 -109.5t82 -135.5t33 -178q0 -174 -85 -267t-251 -93t-251 93t-85 267z" />
<glyph unicode="t" horiz-adv-x="741" d="M23 1229v205h696v-205h-236v-1229h-225v1229h-235z" />
<glyph unicode="u" horiz-adv-x="770" d="M49 342v1092h225v-1106q0 -78 32 -109t85 -31t85 31t32 109v1106h213v-1092q0 -174 -85 -267t-251 -93t-251 93t-85 267z" />
<glyph unicode="v" horiz-adv-x="835" d="M29 1434h227l172 -1170l172 1170h207l-221 -1434h-336z" />
<glyph unicode="w" horiz-adv-x="1169" d="M39 1434h219l121 -1131l108 1131h218l112 -1139l117 1139h196l-159 -1434h-299l-82 764l-82 -764h-309z" />
<glyph unicode="x" horiz-adv-x="903" d="M41 0l252 737l-236 697h234l170 -529l174 529h209l-236 -697l252 -737h-237l-185 567l-186 -567h-211z" />
<glyph unicode="y" horiz-adv-x="835" d="M20 1434h236l172 -654l172 654h215l-285 -959v-475h-225v475z" />
<glyph unicode="z" horiz-adv-x="749" d="M43 0v201l428 1028h-408v205h639v-201l-428 -1028h428v-205h-659z" />
<glyph unicode="{" horiz-adv-x="534" d="M16 625v184q66 0 87.5 25.5t25.5 97.5l16 274q8 117 69.5 172.5t158.5 55.5h114v-185h-32q-53 0 -79 -29.5t-30 -115.5l-10 -205q-2 -29 -8 -57.5t-20.5 -53t-40 -43t-64.5 -28.5q39 -10 64.5 -29.5t40 -44.5t20.5 -52.5t8 -55.5l10 -205q4 -86 29.5 -116t79.5 -30h32 v-184h-114q-96 0 -157.5 55.5t-70.5 171.5l-16 275q-4 72 -25.5 97.5t-87.5 25.5z" />
<glyph unicode="|" horiz-adv-x="290" d="M51 -133v1700h185v-1700h-185z" />
<glyph unicode="}" horiz-adv-x="532" d="M45 0v184h33q53 0 78.5 30t29.5 116l11 205q2 57 28.5 109.5t104.5 72.5q-78 20 -104.5 72.5t-28.5 109.5l-11 205q-4 86 -29.5 115.5t-78.5 29.5h-33v185h115q96 0 157.5 -55.5t69.5 -172.5l16 -274q4 -72 26 -97.5t87 -25.5v-184q-66 0 -87 -26t-26 -97l-16 -275 q-8 -117 -69.5 -172t-157.5 -55h-115z" />
<glyph unicode="~" horiz-adv-x="851" d="M37 680q37 55 68.5 90t60.5 56.5t57.5 29.5t57.5 8q41 0 79.5 -19.5t75.5 -43t71 -43t66 -19.5q35 0 62 26t74 91l106 -111q-74 -109 -130 -142.5t-114 -33.5q-41 0 -79.5 19.5t-75.5 43t-71 43t-66 19.5q-35 0 -62 -25.5t-74 -90.5z" />
<glyph unicode="&#xa1;" horiz-adv-x="321" d="M47 0v598l29 518h168l28 -518v-598h-225zM51 1217v217h217v-217h-217z" />
<glyph unicode="&#xa2;" horiz-adv-x="741" d="M39 426v582q0 145 60.5 234t179.5 116v106h184v-104q123 -25 185.5 -115t62.5 -237v-99h-213v113q0 78 -32 109.5t-85 31.5t-85 -31.5t-32 -109.5v-610q0 -78 32 -109t85 -31t85 31t32 109v163h213v-149q0 -147 -62.5 -238.5t-185.5 -113.5v-105h-184v107 q-119 25 -179.5 114t-60.5 236z" />
<glyph unicode="&#xa3;" horiz-adv-x="763" d="M41 0v197q80 0 135 61t60 172h-166v174h137q-18 53 -43 100.5t-48.5 101.5t-39 121.5t-15.5 162.5q0 174 83 267t249 93t249 -93t83 -267v-142h-213v156q0 78 -29.5 109.5t-83.5 31.5q-53 0 -82.5 -31.5t-29.5 -109.5q0 -96 16 -164t37.5 -123t45.5 -105t38 -108h248 v-174h-234q-8 -78 -37.5 -133t-76.5 -92h387v-205h-670z" />
<glyph unicode="&#xa4;" horiz-adv-x="831" d="M37 633l153 153v-2q-20 61 -20 154v98q0 82 23 154l-3 -2l-153 153l153 154l152 -152q37 10 76 11q35 0 71 -11l152 152l154 -154l-152 -151q23 -72 23 -154v-98q0 -86 -23 -154l152 -151l-154 -154l-152 150q-31 -8 -71 -8q-47 0 -76 10l-152 -152zM334 926 q0 -68 21.5 -96.5t62.5 -28.5t62.5 28.5t21.5 96.5v123q0 68 -21.5 95t-62.5 27t-62.5 -27.5t-21.5 -94.5v-123z" />
<glyph unicode="&#xa5;" horiz-adv-x="831" d="M25 1434h235l166 -633l166 633h215l-262 -879h170v-113h-187v-92h187v-112h-187v-238h-225v238h-186v112h186v92h-186v113h168z" />
<glyph unicode="&#xa6;" horiz-adv-x="278" d="M51 -133v727h185v-727h-185zM51 840v727h185v-727h-185z" />
<glyph unicode="&#xa7;" horiz-adv-x="751" d="M43 643q0 78 35 143.5t106 106.5q-59 39 -100 99.5t-41 166.5q0 123 84 207t248 84q166 0 249 -78t83 -201v-73h-213v43q0 55 -30 89t-83 34q-113 0 -113 -115q0 -43 33 -69.5t82 -50t105.5 -49.5t105.5 -67t82 -101t33 -155q0 -78 -36 -144.5t-108 -106.5 q59 -37 101.5 -98.5t42.5 -166.5q0 -123 -84 -207t-248 -84q-166 0 -249 78t-83 201v102h213v-71q0 -55 29.5 -89t83.5 -34q113 0 112 115q0 43 -32.5 69.5t-82 50t-105.5 49t-105 66.5t-82 101.5t-33 154.5zM258 651q0 -61 36 -96t89 -61q51 8 81 53t30 102q0 59 -37 94 t-90 62q-51 -8 -80 -52.5t-29 -101.5z" />
<glyph unicode="&#xa8;" horiz-adv-x="641" d="M51 1503v209h209v-209h-209zM379 1503v209h209v-209h-209z" />
<glyph unicode="&#xa9;" horiz-adv-x="1495" d="M35 717q0 160 54 294t149.5 232t226.5 152.5t283 54.5t282.5 -54.5t226 -152.5t149.5 -232t54 -294t-54 -294t-149.5 -232.5t-226.5 -152.5t-282 -54q-152 0 -283 54t-226.5 152.5t-149.5 232.5t-54 294zM182 717q0 -129 43 -236.5t119 -186.5t179.5 -123t224.5 -44 t224 44t179 123t119 186.5t43 236.5t-43 236.5t-119 186.5t-179.5 123t-223.5 44q-121 0 -224.5 -44t-179.5 -123t-119 -186.5t-43 -236.5zM508 516v397q0 123 57.5 188.5t173.5 65.5q117 0 174.5 -65.5t57.5 -188.5v-73h-148v86q0 53 -21.5 75.5t-58.5 22.5t-58 -22.5 t-21 -75.5v-418q0 -53 21.5 -74.5t57.5 -21.5q37 0 58.5 21.5t21.5 74.5v123h148v-115q0 -121 -57.5 -185.5t-174.5 -64.5t-174 64.5t-57 185.5z" />
<glyph unicode="&#xaa;" horiz-adv-x="522" d="M39 446v142h434v-142h-434zM39 879v8q0 74 21.5 122t60.5 76.5t92 42t117 15.5v94q0 76 -58 76q-35 0 -52 -19.5t-17 -68.5v-47h-135v39q0 109 52 168t159 59q104 0 149 -59.5t45 -167.5v-535h-121l-8 98q-35 -109 -145 -108q-160 0 -160 207zM182 891q0 -49 19.5 -68.5 t54.5 -19.5q33 0 51.5 16.5t22.5 57.5v159q-47 -2 -77 -14t-45 -30.5t-20.5 -40t-5.5 -42.5v-18z" />
<glyph unicode="&#xab;" horiz-adv-x="743" d="M35 719l127 526h203l-125 -526l125 -559h-203zM367 719l127 526h202l-125 -526l125 -559h-202z" />
<glyph unicode="&#xac;" horiz-adv-x="770" d="M8 637v160h709v-441h-160v281h-549z" />
<glyph unicode="&#xad;" horiz-adv-x="514" d="M51 614v205h410v-205h-410z" />
<glyph unicode="&#xae;" horiz-adv-x="1495" d="M35 717q0 160 54 294t149.5 232t226.5 152.5t283 54.5t282.5 -54.5t226 -152.5t149.5 -232t54 -294t-54 -294t-149.5 -232.5t-226.5 -152.5t-282 -54q-152 0 -283 54t-226.5 152.5t-149.5 232.5t-54 294zM182 717q0 -129 43 -236.5t119 -186.5t179.5 -123t224.5 -44 t224 44t179 123t119 186.5t43 236.5t-43 236.5t-119 186.5t-179.5 123t-223.5 44q-121 0 -224.5 -44t-179.5 -123t-119 -186.5t-43 -236.5zM522 279v876h238q121 0 176 -56.5t55 -172.5v-19q0 -156 -106 -202q59 -25 82.5 -79.5t23.5 -131.5v-95q0 -35 3 -63.5t16 -56.5 h-160q-4 10 -7 19t-4 21.5t-2 32t-1 49.5v95q0 72 -26 99.5t-79 27.5h-53v-344h-156zM678 766h63q43 0 69 22.5t26 81.5v37q0 104 -84 105h-74v-246z" />
<glyph unicode="&#xaf;" horiz-adv-x="600" d="M51 1513v168h496v-168h-496z" />
<glyph unicode="&#xb0;" horiz-adv-x="477" d="M35 1247q0 86 58.5 144.5t144.5 58.5t144 -58.5t58 -144.5t-58 -144.5t-144 -58.5t-144.5 58.5t-58.5 144.5zM137 1247q0 -41 30 -70.5t71 -29.5t70.5 29.5t29.5 70.5t-29.5 71t-70.5 30t-71 -30t-30 -71z" />
<glyph unicode="&#xb1;" horiz-adv-x="729" d="M10 637v160h275v276h159v-276h275v-160h-275v-281h-159v281h-275z" />
<glyph unicode="&#xb2;" horiz-adv-x="509" d="M45 528v111q0 68 20.5 117t52.5 91t68.5 80t68.5 80t52.5 91.5t20.5 115.5q0 59 -19.5 81t-54.5 22t-54.5 -20.5t-19.5 -69.5v-97h-135v89q0 111 53.5 169t159.5 58t159.5 -58.5t53.5 -168.5q0 -74 -22.5 -134.5t-56.5 -109.5t-72.5 -89t-70.5 -78t-50.5 -75t-10.5 -76 h271v-129h-414z" />
<glyph unicode="&#xb3;" horiz-adv-x="507" d="M39 743v74h135v-84q0 -47 19.5 -68.5t54.5 -21.5t54.5 21.5t19.5 83.5v69q0 66 -23 90.5t-70 24.5h-49v129h56q41 0 63.5 22.5t22.5 75.5v51q0 61 -19.5 83t-54.5 22t-54.5 -21.5t-19.5 -68.5v-58h-135v47q0 111 53 170.5t160 59.5q106 0 159.5 -59.5t53.5 -170.5v-22 q0 -145 -100 -186q53 -23 76.5 -72t23.5 -119v-72q0 -111 -53.5 -170t-159.5 -59t-159.5 59.5t-53.5 169.5z" />
<glyph unicode="&#xb4;" horiz-adv-x="417" d="M25 1503l147 240h234l-222 -240h-159z" />
<glyph unicode="&#xb5;" horiz-adv-x="1007" d="M51 -397v1433h225v-569q4 -68 35 -95.5t82 -27.5q27 0 87.5 7t123 23.5t109.5 43t47 65.5v553h225v-1003h-225v190q-88 -43 -185.5 -64.5t-175.5 -21.5q-35 0 -64.5 3t-58.5 14v-551h-225z" />
<glyph unicode="&#xb6;" horiz-adv-x="778" d="M25 893v186q0 174 82.5 264.5t252.5 90.5h365v-1567h-164v1403h-110v-1403h-164l4 676q-129 0 -197.5 98t-68.5 252z" />
<glyph unicode="&#xb7;" horiz-adv-x="323" d="M51 608v217h217v-217h-217z" />
<glyph unicode="&#xb8;" horiz-adv-x="411" d="M20 -203h132v-20q0 -23 13 -30t30 -7q53 0 53 53q0 57 -74 57h-22v179h102v-109q59 0 94 -31.5t35 -85.5q0 -92 -55.5 -130t-130.5 -38q-70 0 -123.5 35t-53.5 107v20z" />
<glyph unicode="&#xb9;" horiz-adv-x="315" d="M6 1219v100q41 0 67.5 9t44 24.5t28 37t20.5 44.5h94v-910h-143v695h-111z" />
<glyph unicode="&#xba;" horiz-adv-x="524" d="M45 446v142h434v-142h-434zM45 899v318q0 109 55.5 168t161.5 59t161.5 -59.5t55.5 -167.5v-318q0 -109 -55 -168t-162 -59q-106 0 -161.5 59.5t-55.5 167.5zM188 891q0 -49 19.5 -68.5t54.5 -19.5t54.5 19.5t19.5 68.5v334q0 49 -19.5 68.5t-54.5 19.5t-54.5 -19.5 t-19.5 -68.5v-334z" />
<glyph unicode="&#xbb;" horiz-adv-x="743" d="M47 160l125 559l-125 526h203l127 -526l-127 -559h-203zM379 160l125 559l-125 526h203l127 -526l-127 -559h-203z" />
<glyph unicode="&#xbc;" horiz-adv-x="1175" d="M31 1219v100q41 0 67.5 9t44 24.5t27.5 37t20 44.5h95v-910h-144v695h-110zM225 0l566 1434h133l-566 -1434h-133zM657 158v131l261 614h155v-614h68v-131h-68v-164h-141v164h-275zM786 289h146v336z" />
<glyph unicode="&#xbd;" horiz-adv-x="1153" d="M33 1219v100q41 0 67.5 9t44 24.5t27.5 37t21 44.5h94v-910h-144v695h-110zM166 0l565 1434h133l-565 -1434h-133zM696 -2v111q0 66 20.5 115.5t52.5 91.5t68.5 80t68.5 80t52.5 92t20.5 116q0 59 -19.5 80.5t-54.5 21.5t-54.5 -20.5t-19.5 -69.5v-96h-135v88 q0 111 53.5 169t159.5 58t159.5 -58t53.5 -169q0 -74 -22.5 -134t-56 -109.5t-72.5 -89.5t-71 -77.5t-50.5 -74.5t-9.5 -76h270v-129h-414z" />
<glyph unicode="&#xbe;" horiz-adv-x="1234" d="M31 743v74h135v-84q0 -47 19.5 -68.5t54.5 -21.5t54 21.5t19 83.5v69q0 66 -22.5 90.5t-69.5 24.5h-49v129h55q41 0 63.5 22.5t22.5 75.5v51q0 61 -19.5 83t-53.5 22q-35 0 -54.5 -21.5t-19.5 -68.5v-58h-135v47q0 111 53 170.5t160 59.5q106 0 159.5 -59.5t53.5 -170.5 v-22q0 -145 -101 -186q53 -23 77 -72t24 -119v-72q0 -111 -53.5 -170t-159.5 -59t-159.5 59.5t-53.5 169.5zM305 0l565 1434h134l-566 -1434h-133zM717 158v131l260 614h156v-614h67v-131h-67v-164h-142v164h-274zM846 289h145v336z" />
<glyph unicode="&#xbf;" horiz-adv-x="706" d="M20 344q0 92 19.5 161.5t49.5 125t64.5 101.5t64.5 91t49.5 96.5t19.5 116.5q0 45 -8 80h200q12 -37 13 -88q0 -78 -18.5 -135t-45.5 -105.5t-59.5 -92.5t-59 -95t-45 -116.5t-18.5 -153.5q0 -78 29.5 -110t82.5 -32t83 32t30 110v155h213v-141q0 -174 -83 -267t-249 -93 t-249 93t-83 267zM272 1217v217h217v-217h-217z" />
<glyph unicode="&#xc0;" horiz-adv-x="833" d="M25 0l229 1434h330l229 -1434h-227l-39 260h-277l-39 -260h-206zM141 1743h244l147 -240h-170zM299 455h217l-108 725z" />
<glyph unicode="&#xc1;" horiz-adv-x="833" d="M20 0l230 1434h330l229 -1434h-227l-39 260h-277l-39 -260h-207zM295 455h217l-109 725zM305 1503l148 240h233l-221 -240h-160z" />
<glyph unicode="&#xc2;" horiz-adv-x="837" d="M25 0l229 1434h330l229 -1434h-227l-39 260h-277l-39 -260h-206zM121 1503l190 240h215l191 -240h-203l-96 119l-94 -119h-203zM299 455h217l-108 725z" />
<glyph unicode="&#xc3;" d="M27 0l229 1434h330l229 -1434h-227l-39 260h-277l-39 -260h-206zM115 1577q51 90 95 117.5t99 27.5q35 0 63.5 -8t53.5 -19.5t47.5 -19.5t46.5 -8q29 0 49.5 13.5t40.5 54.5l115 -86q-51 -90 -95 -118t-100 -28q-35 0 -63.5 8.5t-53 19.5t-47 19.5t-47.5 8.5 q-29 0 -49 -13.5t-41 -54.5zM301 455h217l-108 725z" />
<glyph unicode="&#xc4;" d="M27 0l229 1434h330l229 -1434h-227l-39 260h-277l-39 -260h-206zM152 1503v209h208v-209h-208zM301 455h217l-108 725zM479 1503v209h209v-209h-209z" />
<glyph unicode="&#xc5;" horiz-adv-x="837" d="M25 0l229 1434h330l229 -1434h-227l-39 260h-277l-39 -260h-206zM246 1667q0 72 50 122t122 50t122 -50t50 -122t-50.5 -122t-121.5 -50q-72 0 -122 50t-50 122zM299 455h217l-108 725zM352 1667q0 -29 18.5 -47t47.5 -18t47 18t18 47t-18.5 47.5t-46.5 18.5 q-29 0 -47.5 -18.5t-18.5 -47.5z" />
<glyph unicode="&#xc6;" horiz-adv-x="1196" d="M27 0l383 1434h739v-205h-389v-400h309v-204h-309v-420h389v-205h-614v260h-228l-65 -260h-215zM358 455h177v690z" />
<glyph unicode="&#xc7;" horiz-adv-x="741" d="M37 344v746q0 174 85 267t251 93t251 -93t85 -267v-140h-213v154q0 78 -32 109.5t-85 31.5t-85 -31.5t-32 -109.5v-774q0 -78 32 -109t85 -31t85 31t32 109v205h213v-191q0 -160 -73 -253t-216 -105v-66q59 0 94 -31.5t35 -85.5q0 -92 -55.5 -130t-131.5 -38 q-70 0 -123 35t-53 107v20h131v-20q0 -23 13.5 -30t29.5 -7q53 0 54 53q0 57 -74 57h-23v138q-141 14 -210.5 105t-69.5 251z" />
<glyph unicode="&#xc8;" horiz-adv-x="675" d="M45 0v1434h614v-205h-389v-400h310v-204h-310v-420h389v-205h-614zM72 1743h243l148 -240h-170z" />
<glyph unicode="&#xc9;" horiz-adv-x="677" d="M39 0v1434h614v-205h-389v-400h309v-204h-309v-420h389v-205h-614zM236 1503l147 240h233l-221 -240h-159z" />
<glyph unicode="&#xca;" horiz-adv-x="686" d="M45 0v1434h614v-205h-389v-400h310v-204h-310v-420h389v-205h-614zM51 1503l191 240h215l190 -240h-203l-96 119l-94 -119h-203z" />
<glyph unicode="&#xcb;" horiz-adv-x="692" d="M49 0v1434h615v-205h-390v-400h310v-204h-310v-420h390v-205h-615zM86 1503v209h209v-209h-209zM414 1503v209h209v-209h-209z" />
<glyph unicode="&#xcc;" horiz-adv-x="442" d="M4 1743h244l147 -240h-170zM168 0v1434h225v-1434h-225z" />
<glyph unicode="&#xcd;" horiz-adv-x="434" d="M45 0v1434h225v-1434h-225zM49 1503l148 240h233l-221 -240h-160z" />
<glyph unicode="&#xce;" horiz-adv-x="620" d="M12 1503l191 240h215l190 -240h-202l-97 119l-94 -119h-203zM197 0v1434h225v-1434h-225z" />
<glyph unicode="&#xcf;" horiz-adv-x="569" d="M16 1503v209h209v-209h-209zM172 0v1434h225v-1434h-225zM344 1503v209h209v-209h-209z" />
<glyph unicode="&#xd0;" horiz-adv-x="849" d="M37 625v184h74v625h356q170 0 253 -90.5t83 -264.5v-725q0 -174 -83 -264t-253 -90h-356v625h-74zM336 205h127q53 0 84 30.5t31 108.5v746q0 78 -31 108.5t-84 30.5h-127v-420h139v-184h-139v-420z" />
<glyph unicode="&#xd1;" horiz-adv-x="806" d="M45 0v1434h283l231 -859v859h201v-1434h-232l-280 1038v-1038h-203zM96 1577q51 90 95.5 117.5t99.5 27.5q35 0 63.5 -8t53 -19.5t47 -19.5t47.5 -8q29 0 49 13.5t41 54.5l115 -86q-51 -90 -95.5 -118t-99.5 -28q-35 0 -63.5 8.5t-53 19.5t-47 19.5t-47.5 8.5 q-29 0 -49.5 -13.5t-40.5 -54.5z" />
<glyph unicode="&#xd2;" horiz-adv-x="757" d="M39 344v746q0 174 88 267t254 93t254 -93t88 -267v-746q0 -174 -88 -267t-254 -93t-254 93t-88 267zM102 1743h244l148 -240h-170zM264 330q0 -78 32 -110t85 -32t85 32t32 110v774q0 78 -32 109.5t-85 31.5t-85 -31.5t-32 -109.5v-774z" />
<glyph unicode="&#xd3;" horiz-adv-x="755" d="M33 344v746q0 174 88 267t254 93t254 -93t88 -267v-746q0 -174 -88 -267t-254 -93t-254 93t-88 267zM258 330q0 -78 32 -110t85 -32t85 32t32 110v774q0 78 -32 109.5t-85 31.5t-85 -31.5t-32 -109.5v-774zM266 1503l148 240h233l-221 -240h-160z" />
<glyph unicode="&#xd4;" horiz-adv-x="763" d="M39 344v746q0 174 88 267t254 93t254 -93t88 -267v-746q0 -174 -88 -267t-254 -93t-254 93t-88 267zM82 1503l190 240h215l191 -240h-203l-96 119l-94 -119h-203zM264 330q0 -78 32 -110t85 -32t85 32t32 110v774q0 78 -32 109.5t-85 31.5t-85 -31.5t-32 -109.5v-774z " />
<glyph unicode="&#xd5;" horiz-adv-x="768" d="M41 344v746q0 174 88 267t254 93t254 -93t88 -267v-746q0 -174 -88 -267t-254 -93t-254 93t-88 267zM78 1577q51 90 95 117.5t99 27.5q35 0 64 -8t53.5 -19.5t47 -19.5t46.5 -8q29 0 49.5 13.5t40.5 54.5l115 -86q-51 -90 -95 -118t-99 -28q-35 0 -64 8.5t-53.5 19.5 t-47 19.5t-46.5 8.5q-29 0 -49.5 -13.5t-40.5 -54.5zM266 330q0 -78 32 -110t85 -32t85 32t32 110v774q0 78 -32 109.5t-85 31.5t-85 -31.5t-32 -109.5v-774z" />
<glyph unicode="&#xd6;" horiz-adv-x="770" d="M43 344v746q0 174 88 267t254 93t254 -93t88 -267v-746q0 -174 -88 -267t-254 -93t-254 93t-88 267zM117 1503v209h209v-209h-209zM268 330q0 -78 32 -110t85 -32t85 32t32 110v774q0 78 -32 109.5t-85 31.5t-85 -31.5t-32 -109.5v-774zM444 1503v209h209v-209h-209z" />
<glyph unicode="&#xd7;" horiz-adv-x="731" d="M39 500l217 217l-215 215l109 108l217 -215l217 217l108 -108l-217 -217l217 -217l-108 -109l-217 217l-220 -217z" />
<glyph unicode="&#xd8;" horiz-adv-x="772" d="M43 344v746q0 174 88 267t254 93q123 0 205 -53l41 112l76 -26l-54 -146q74 -90 74 -247v-746q0 -174 -88 -267t-254 -93q-127 0 -205 51l-41 -111l-76 27l52 143q-72 94 -72 250zM268 514l230 633q-8 53 -38 75.5t-75 22.5q-53 0 -85 -31.5t-32 -109.5v-590zM270 287 q10 -53 39 -76t76 -23q53 0 85 32t32 110v590z" />
<glyph unicode="&#xd9;" horiz-adv-x="749" d="M41 342v1092h225v-1106q0 -78 32 -109t85 -31t85 31t32 109v1106h213v-1092q0 -174 -85 -267t-251 -93t-251 93t-85 267zM100 1743h244l148 -240h-170z" />
<glyph unicode="&#xda;" horiz-adv-x="747" d="M35 342v1092h225v-1106q0 -78 32 -109t85 -31t85 31t32 109v1106h213v-1092q0 -174 -85 -267t-251 -93t-251 93t-85 267zM264 1503l148 240h233l-221 -240h-160z" />
<glyph unicode="&#xdb;" horiz-adv-x="757" d="M43 342v1092h225v-1106q0 -78 32 -109t85 -31t85 31t32 109v1106h213v-1092q0 -174 -85 -267t-251 -93t-251 93t-85 267zM84 1503l190 240h215l191 -240h-203l-96 119l-94 -119h-203z" />
<glyph unicode="&#xdc;" horiz-adv-x="761" d="M45 342v1092h225v-1106q0 -78 32 -109t85 -31t85 31t32 109v1106h213v-1092q0 -174 -85 -267t-251 -93t-251 93t-85 267zM117 1503v209h209v-209h-209zM444 1503v209h209v-209h-209z" />
<glyph unicode="&#xdd;" horiz-adv-x="821" d="M12 1434h236l172 -654l172 654h215l-285 -959v-475h-225v475zM309 1503l148 240h233l-221 -240h-160z" />
<glyph unicode="&#xde;" horiz-adv-x="731" d="M51 0v1434h225v-164h107q170 0 253 -90t83 -265v-186q0 -174 -83 -264t-253 -90h-107v-375h-225zM276 580h107q53 0 82 28.5t29 106.5v215q0 78 -29 106.5t-82 28.5h-107v-485z" />
<glyph unicode="&#xdf;" horiz-adv-x="1527" d="M45 344v98h213v-112q0 -78 32 -109t85 -31t85 31t32 109q0 74 -33 130t-82 106t-105.5 100.5t-105.5 110t-82 135.5t-33 178q0 174 83 267t249 93t249 -93t83 -267v-56h-213v70q0 78 -30 109.5t-83 31.5t-83 -31.5t-30 -109.5q0 -74 33 -130t82 -106.5t105.5 -100.5 t105.5 -109.5t82 -135.5t33 -178q0 -174 -85 -267t-251 -93t-251 93t-85 267zM811 344v98h213v-112q0 -78 31.5 -109t85.5 -31q53 0 84.5 31t31.5 109q0 74 -32.5 130t-81.5 106t-105.5 100.5t-105.5 110t-82 135.5t-33 178q0 174 83 267t249 93t249 -93t83 -267v-56h-213 v70q0 78 -30 109.5t-83 31.5t-83 -31.5t-30 -109.5q0 -74 33 -130t82 -106.5t105.5 -100.5t105.5 -109.5t82 -135.5t33 -178q0 -174 -85 -267t-251 -93t-251 93t-85 267z" />
<glyph unicode="&#xe0;" horiz-adv-x="833" d="M25 0l229 1434h330l229 -1434h-227l-39 260h-277l-39 -260h-206zM141 1743h244l147 -240h-170zM299 455h217l-108 725z" />
<glyph unicode="&#xe1;" horiz-adv-x="833" d="M20 0l230 1434h330l229 -1434h-227l-39 260h-277l-39 -260h-207zM295 455h217l-109 725zM305 1503l148 240h233l-221 -240h-160z" />
<glyph unicode="&#xe2;" horiz-adv-x="837" d="M25 0l229 1434h330l229 -1434h-227l-39 260h-277l-39 -260h-206zM121 1503l190 240h215l191 -240h-203l-96 119l-94 -119h-203zM299 455h217l-108 725z" />
<glyph unicode="&#xe3;" d="M27 0l229 1434h330l229 -1434h-227l-39 260h-277l-39 -260h-206zM115 1577q51 90 95 117.5t99 27.5q35 0 63.5 -8t53.5 -19.5t47.5 -19.5t46.5 -8q29 0 49.5 13.5t40.5 54.5l115 -86q-51 -90 -95 -118t-100 -28q-35 0 -63.5 8.5t-53 19.5t-47 19.5t-47.5 8.5 q-29 0 -49 -13.5t-41 -54.5zM301 455h217l-108 725z" />
<glyph unicode="&#xe4;" d="M27 0l229 1434h330l229 -1434h-227l-39 260h-277l-39 -260h-206zM152 1503v209h208v-209h-208zM301 455h217l-108 725zM479 1503v209h209v-209h-209z" />
<glyph unicode="&#xe5;" horiz-adv-x="837" d="M25 0l229 1434h330l229 -1434h-227l-39 260h-277l-39 -260h-206zM246 1667q0 72 50 122t122 50t122 -50t50 -122t-50.5 -122t-121.5 -50q-72 0 -122 50t-50 122zM299 455h217l-108 725zM352 1667q0 -29 18.5 -47t47.5 -18t47 18t18 47t-18.5 47.5t-46.5 18.5 q-29 0 -47.5 -18.5t-18.5 -47.5z" />
<glyph unicode="&#xe6;" horiz-adv-x="1196" d="M27 0l383 1434h739v-205h-389v-400h309v-204h-309v-420h389v-205h-614v260h-228l-65 -260h-215zM358 455h177v690z" />
<glyph unicode="&#xe7;" horiz-adv-x="741" d="M37 344v746q0 174 85 267t251 93t251 -93t85 -267v-140h-213v154q0 78 -32 109.5t-85 31.5t-85 -31.5t-32 -109.5v-774q0 -78 32 -109t85 -31t85 31t32 109v205h213v-191q0 -160 -73 -253t-216 -105v-66q59 0 94 -31.5t35 -85.5q0 -92 -55.5 -130t-131.5 -38 q-70 0 -123 35t-53 107v20h131v-20q0 -23 13.5 -30t29.5 -7q53 0 54 53q0 57 -74 57h-23v138q-141 14 -210.5 105t-69.5 251z" />
<glyph unicode="&#xe8;" horiz-adv-x="675" d="M45 0v1434h614v-205h-389v-400h310v-204h-310v-420h389v-205h-614zM72 1743h243l148 -240h-170z" />
<glyph unicode="&#xe9;" horiz-adv-x="677" d="M39 0v1434h614v-205h-389v-400h309v-204h-309v-420h389v-205h-614zM236 1503l147 240h233l-221 -240h-159z" />
<glyph unicode="&#xea;" horiz-adv-x="686" d="M45 0v1434h614v-205h-389v-400h310v-204h-310v-420h389v-205h-614zM51 1503l191 240h215l190 -240h-203l-96 119l-94 -119h-203z" />
<glyph unicode="&#xeb;" horiz-adv-x="692" d="M49 0v1434h615v-205h-390v-400h310v-204h-310v-420h390v-205h-615zM86 1503v209h209v-209h-209zM414 1503v209h209v-209h-209z" />
<glyph unicode="&#xec;" horiz-adv-x="442" d="M4 1743h244l147 -240h-170zM168 0v1434h225v-1434h-225z" />
<glyph unicode="&#xed;" horiz-adv-x="434" d="M45 0v1434h225v-1434h-225zM49 1503l148 240h233l-221 -240h-160z" />
<glyph unicode="&#xee;" horiz-adv-x="620" d="M12 1503l191 240h215l190 -240h-202l-97 119l-94 -119h-203zM197 0v1434h225v-1434h-225z" />
<glyph unicode="&#xef;" horiz-adv-x="569" d="M16 1503v209h209v-209h-209zM172 0v1434h225v-1434h-225zM344 1503v209h209v-209h-209z" />
<glyph unicode="&#xf0;" horiz-adv-x="849" d="M37 625v184h74v625h356q170 0 253 -90.5t83 -264.5v-725q0 -174 -83 -264t-253 -90h-356v625h-74zM336 205h127q53 0 84 30.5t31 108.5v746q0 78 -31 108.5t-84 30.5h-127v-420h139v-184h-139v-420z" />
<glyph unicode="&#xf1;" horiz-adv-x="806" d="M45 0v1434h283l231 -859v859h201v-1434h-232l-280 1038v-1038h-203zM96 1577q51 90 95.5 117.5t99.5 27.5q35 0 63.5 -8t53 -19.5t47 -19.5t47.5 -8q29 0 49 13.5t41 54.5l115 -86q-51 -90 -95.5 -118t-99.5 -28q-35 0 -63.5 8.5t-53 19.5t-47 19.5t-47.5 8.5 q-29 0 -49.5 -13.5t-40.5 -54.5z" />
<glyph unicode="&#xf2;" horiz-adv-x="757" d="M39 344v746q0 174 88 267t254 93t254 -93t88 -267v-746q0 -174 -88 -267t-254 -93t-254 93t-88 267zM102 1743h244l148 -240h-170zM264 330q0 -78 32 -110t85 -32t85 32t32 110v774q0 78 -32 109.5t-85 31.5t-85 -31.5t-32 -109.5v-774z" />
<glyph unicode="&#xf3;" horiz-adv-x="755" d="M33 344v746q0 174 88 267t254 93t254 -93t88 -267v-746q0 -174 -88 -267t-254 -93t-254 93t-88 267zM258 330q0 -78 32 -110t85 -32t85 32t32 110v774q0 78 -32 109.5t-85 31.5t-85 -31.5t-32 -109.5v-774zM266 1503l148 240h233l-221 -240h-160z" />
<glyph unicode="&#xf4;" horiz-adv-x="763" d="M39 344v746q0 174 88 267t254 93t254 -93t88 -267v-746q0 -174 -88 -267t-254 -93t-254 93t-88 267zM82 1503l190 240h215l191 -240h-203l-96 119l-94 -119h-203zM264 330q0 -78 32 -110t85 -32t85 32t32 110v774q0 78 -32 109.5t-85 31.5t-85 -31.5t-32 -109.5v-774z " />
<glyph unicode="&#xf5;" horiz-adv-x="768" d="M41 344v746q0 174 88 267t254 93t254 -93t88 -267v-746q0 -174 -88 -267t-254 -93t-254 93t-88 267zM78 1577q51 90 95 117.5t99 27.5q35 0 64 -8t53.5 -19.5t47 -19.5t46.5 -8q29 0 49.5 13.5t40.5 54.5l115 -86q-51 -90 -95 -118t-99 -28q-35 0 -64 8.5t-53.5 19.5 t-47 19.5t-46.5 8.5q-29 0 -49.5 -13.5t-40.5 -54.5zM266 330q0 -78 32 -110t85 -32t85 32t32 110v774q0 78 -32 109.5t-85 31.5t-85 -31.5t-32 -109.5v-774z" />
<glyph unicode="&#xf6;" horiz-adv-x="770" d="M43 344v746q0 174 88 267t254 93t254 -93t88 -267v-746q0 -174 -88 -267t-254 -93t-254 93t-88 267zM117 1503v209h209v-209h-209zM268 330q0 -78 32 -110t85 -32t85 32t32 110v774q0 78 -32 109.5t-85 31.5t-85 -31.5t-32 -109.5v-774zM444 1503v209h209v-209h-209z" />
<glyph unicode="&#xf7;" horiz-adv-x="733" d="M12 637v160h709v-160h-709zM258 295v217h217v-217h-217zM258 920v217h217v-217h-217z" />
<glyph unicode="&#xf8;" horiz-adv-x="772" d="M43 344v746q0 174 88 267t254 93q123 0 205 -53l41 112l76 -26l-54 -146q74 -90 74 -247v-746q0 -174 -88 -267t-254 -93q-127 0 -205 51l-41 -111l-76 27l52 143q-72 94 -72 250zM268 514l230 633q-8 53 -38 75.5t-75 22.5q-53 0 -85 -31.5t-32 -109.5v-590zM270 287 q10 -53 39 -76t76 -23q53 0 85 32t32 110v590z" />
<glyph unicode="&#xf9;" horiz-adv-x="749" d="M41 342v1092h225v-1106q0 -78 32 -109t85 -31t85 31t32 109v1106h213v-1092q0 -174 -85 -267t-251 -93t-251 93t-85 267zM100 1743h244l148 -240h-170z" />
<glyph unicode="&#xfa;" horiz-adv-x="747" d="M35 342v1092h225v-1106q0 -78 32 -109t85 -31t85 31t32 109v1106h213v-1092q0 -174 -85 -267t-251 -93t-251 93t-85 267zM264 1503l148 240h233l-221 -240h-160z" />
<glyph unicode="&#xfb;" horiz-adv-x="757" d="M43 342v1092h225v-1106q0 -78 32 -109t85 -31t85 31t32 109v1106h213v-1092q0 -174 -85 -267t-251 -93t-251 93t-85 267zM84 1503l190 240h215l191 -240h-203l-96 119l-94 -119h-203z" />
<glyph unicode="&#xfc;" horiz-adv-x="761" d="M45 342v1092h225v-1106q0 -78 32 -109t85 -31t85 31t32 109v1106h213v-1092q0 -174 -85 -267t-251 -93t-251 93t-85 267zM117 1503v209h209v-209h-209zM444 1503v209h209v-209h-209z" />
<glyph unicode="&#xfd;" horiz-adv-x="821" d="M12 1434h236l172 -654l172 654h215l-285 -959v-475h-225v475zM309 1503l148 240h233l-221 -240h-160z" />
<glyph unicode="&#xfe;" horiz-adv-x="731" d="M51 0v1434h225v-164h107q170 0 253 -90t83 -265v-186q0 -174 -83 -264t-253 -90h-107v-375h-225zM276 580h107q53 0 82 28.5t29 106.5v215q0 78 -29 106.5t-82 28.5h-107v-485z" />
<glyph unicode="&#xff;" horiz-adv-x="827" d="M16 1434h236l172 -654l172 654h215l-285 -959v-475h-225v475zM154 1503v209h208v-209h-208zM481 1503v209h209v-209h-209z" />
<glyph unicode="&#x152;" horiz-adv-x="1175" d="M47 354v725q0 174 83 264.5t253 90.5h745v-205h-389v-400h310v-204h-310v-420h389v-205h-745q-170 0 -253 90t-83 264zM272 344q0 -78 31 -108.5t84 -30.5h127v1024h-127q-53 0 -84 -31t-31 -108v-746z" />
<glyph unicode="&#x153;" horiz-adv-x="1175" d="M47 354v725q0 174 83 264.5t253 90.5h745v-205h-389v-400h310v-204h-310v-420h389v-205h-745q-170 0 -253 90t-83 264zM272 344q0 -78 31 -108.5t84 -30.5h127v1024h-127q-53 0 -84 -31t-31 -108v-746z" />
<glyph unicode="&#x178;" horiz-adv-x="827" d="M16 1434h236l172 -654l172 654h215l-285 -959v-475h-225v475zM154 1503v209h208v-209h-208zM481 1503v209h209v-209h-209z" />
<glyph unicode="&#x2c6;" horiz-adv-x="653" d="M29 1503l190 240h215l191 -240h-203l-96 119l-95 -119h-202z" />
<glyph unicode="&#x2dc;" horiz-adv-x="677" d="M35 1577q51 90 95 117.5t99 27.5q35 0 64 -8t53.5 -19.5t47 -19.5t46.5 -8q29 0 49.5 13.5t40.5 54.5l115 -86q-51 -90 -95 -118t-99 -28q-35 0 -64 8.5t-53.5 19.5t-47 19.5t-46.5 8.5q-29 0 -49.5 -13.5t-40.5 -54.5z" />
<glyph unicode="&#x2000;" horiz-adv-x="919" />
<glyph unicode="&#x2001;" horiz-adv-x="1839" />
<glyph unicode="&#x2002;" horiz-adv-x="919" />
<glyph unicode="&#x2003;" horiz-adv-x="1839" />
<glyph unicode="&#x2004;" horiz-adv-x="613" />
<glyph unicode="&#x2005;" horiz-adv-x="459" />
<glyph unicode="&#x2006;" horiz-adv-x="306" />
<glyph unicode="&#x2007;" horiz-adv-x="306" />
<glyph unicode="&#x2008;" horiz-adv-x="229" />
<glyph unicode="&#x2009;" horiz-adv-x="367" />
<glyph unicode="&#x200a;" horiz-adv-x="102" />
<glyph unicode="&#x2010;" horiz-adv-x="518" d="M53 614v205h410v-205h-410z" />
<glyph unicode="&#x2011;" horiz-adv-x="518" d="M53 614v205h410v-205h-410z" />
<glyph unicode="&#x2012;" horiz-adv-x="518" d="M53 614v205h410v-205h-410z" />
<glyph unicode="&#x2013;" horiz-adv-x="1126" d="M51 625v184h1024v-184h-1024z" />
<glyph unicode="&#x2014;" horiz-adv-x="2150" d="M51 625v184h2048v-184h-2048z" />
<glyph unicode="&#x2018;" horiz-adv-x="292" d="M33 1012v194l98 228h92l-59 -205h86v-217h-217z" />
<glyph unicode="&#x2019;" horiz-adv-x="290" d="M41 1217v217h217v-195l-98 -227h-92l59 205h-86z" />
<glyph unicode="&#x201a;" horiz-adv-x="290" d="M41 0v217h217v-194l-98 -228h-92l59 205h-86z" />
<glyph unicode="&#x201c;" horiz-adv-x="606" d="M43 1012v194l98 228h92l-59 -205h86v-217h-217zM342 1012v194l98 228h92l-59 -205h86v-217h-217z" />
<glyph unicode="&#x201d;" horiz-adv-x="606" d="M47 1217v217h217v-195l-98 -227h-92l59 205h-86zM346 1217v217h217v-195l-98 -227h-92l59 205h-86z" />
<glyph unicode="&#x201e;" horiz-adv-x="606" d="M47 0v217h217v-194l-98 -228h-92l59 205h-86zM346 0v217h217v-194l-98 -228h-92l59 205h-86z" />
<glyph unicode="&#x2022;" horiz-adv-x="638" d="M35 717q0 59 22.5 111.5t60.5 90t90 60t111 22.5t111.5 -22.5t90.5 -60t60.5 -90t22.5 -111.5t-22.5 -111.5t-60.5 -90.5t-90 -60.5t-112 -22.5q-59 0 -111 22.5t-90 60.5t-60.5 90.5t-22.5 111.5z" />
<glyph unicode="&#x2026;" horiz-adv-x="917" d="M51 0v217h217v-217h-217zM350 0v217h217v-217h-217zM649 0v217h217v-217h-217z" />
<glyph unicode="&#x202f;" horiz-adv-x="367" />
<glyph unicode="&#x2039;" horiz-adv-x="401" d="M23 719l122 545h213l-120 -545l120 -578h-213z" />
<glyph unicode="&#x203a;" horiz-adv-x="401" d="M43 141l121 578l-121 545h213l123 -545l-123 -578h-213z" />
<glyph unicode="&#x205f;" horiz-adv-x="459" />
<glyph unicode="&#x20ac;" horiz-adv-x="792" d="M35 553v113h57v112h-57v113h57v199q0 174 82 267t248 93t248 -93t82 -267v-119h-213v133q0 78 -29 109.5t-82 31.5t-82 -31.5t-29 -109.5v-213h316v-113h-316v-112h316v-113h-316v-223q0 -78 29 -109t82 -31t82 31t29 109v143h213v-129q0 -174 -82 -267t-248 -93t-248 93 t-82 267v209h-57z" />
<glyph unicode="&#x2122;" horiz-adv-x="1220" d="M41 1303v131h442v-131h-149v-598h-144v598h-149zM569 705v729h199l106 -512l97 512h198v-729h-135v518l-96 -518h-135l-109 514v-514h-125z" />
<glyph unicode="&#x25fc;" horiz-adv-x="1433" d="M0 0v1434h1434v-1434h-1434z" />
</font>
</defs>
</svg>
